# AST/ASF file generated using VICON BodyLanguage
# -----------------------------------------------
:version 1.10
:name VICON
:units
  mass 1.0
  length 0.45
  angle deg
:documentation
   .ast/.asf automatically generated from VICON data using
   VICON BodyBuilder and BodyLanguage model FoxedUp or BRILLIANT.MOD
:root
   order TX TY TZ RX RY RZ
   axis XYZ
   position 0 0 0  
   orientation 0 0 0 
:bonedata
  begin
     id 1 
     name lhipjoint
     direction 0.645422 -0.672597 0.361999 
     length 2.39934 
     axis 0 0 0  XYZ
  end
  begin
     id 2 
     name lfemur
     direction 0.34202 -0.939693 0  
     length 6.58112  
     axis 0 0 20  XYZ
    dof rx ry rz
    limits (-160.0 20.0)
           (-70.0 70.0)
           (-60.0 70.0)
  end
  begin
     id 3 
     name ltibia
     direction 0.34202 -0.939693 0   
     length 7.02673   
     axis 0 0 20   XYZ
    dof rx
    limits (-10.0 170.0)
  end
  begin
     id 4 
     name lfoot
     direction 0.0835106 -0.229444 0.969733   
     length 2.08772   
     axis -90 7.62852e-016 20   XYZ
    dof rx rz
    limits (-45.0 90.0)
           (-70.0 20.0)
  end
  begin
     id 5 
     name ltoes
     direction 1.5358e-011 -4.21925e-011 1   
     length 1.04844   
     axis -90 7.62852e-016 20   XYZ
    dof rx
    limits (-90.0 20.0)
  end
  begin
     id 6 
     name rhipjoint
     direction -0.644959 -0.672941 0.362185   
     length 2.39812  
     axis 0 0 0  XYZ 
  end
  begin
     id 7 
     name rfemur
     direction -0.34202 -0.939693 0   
     length 6.67015   
     axis 0 0 -20   XYZ
    dof rx ry rz
    limits (-160.0 20.0)
           (-70.0 70.0)
           (-70.0 60.0)
  end
  begin
     id 8 
     name rtibia
     direction -0.34202 -0.939693 0   
     length 7.35735   
     axis 0 0 -20   XYZ
    dof rx
    limits (-10.0 170.0)
 end
 begin
     id 9 
     name rfoot
     direction -0.0670769 -0.184292 0.98058   
     length 2.25469  
     axis -90 -7.62852e-016 -20   XYZ
    dof rx rz
    limits (-45.0 90.0)
           (-20.0 70.0)
  end
  begin
     id 10 
     name rtoes
     direction -1.53575e-011 -4.21908e-011 1   
     length 1.13399   
     axis -90 -7.62852e-016 -20   XYZ
    dof rx
    limits (-90.0 20.0)
  end
  begin
     id 11 
     name lowerback
     direction -0.0188328 0.993434 -0.112847   
     length 2.27656   
     axis 0 0 0   XYZ
    dof rx ry rz
    limits (-20.0 45.0)
           (-30.0 30.0)
           (-30.0 30.0)
  end
  begin
     id 12 
     name upperback
     direction 0.00983139 0.998968 -0.04435   
     length 2.28631   
     axis 0 0 0   XYZ
    dof rx ry rz
    limits (-20.0 45.0)
           (-30.0 30.0)
           (-30.0 30.0)
  end
  begin
     id 13 
     name thorax
     direction 0.0177718 0.999807 0.00833073   
     length 2.30999   
     axis 0 0 0   XYZ
    dof rx ry rz
    limits (-20.0 45.0)
           (-30.0 30.0)
           (-30.0 30.0)
  end
  begin
     id 14 
     name lowerneck
     direction -0.0835025 0.993181 0.0813558   
     length 1.39447   
     axis 0 0 0   XYZ
    dof rx ry rz
    limits (-20.0 45.0)
           (-30.0 30.0)
           (-30.0 30.0)
  end
  begin
     id 15 
     name upperneck
     direction 0.210059 0.976535 0.0474817   
     length 1.39882   
     axis 0 0 0   XYZ
    dof rx ry rz
    limits (-20.0 45.0)
           (-30.0 30.0)
           (-30.0 30.0)
  end
  begin
     id 16
     name head
     direction 0.0780891 0.996944 -0.00207154  
     length 1.41828  
     axis 0 0 0   XYZ
    dof rx ry rz
    limits (-20.0 45.0)
           (-30.0 30.0)
           (-30.0 30.0)
  end
  begin
     id 17 
     name lclavicle
     direction 0.982414 0.166355 -0.0847829  
     length 3.57922  
     axis 0 0 0   XYZ
    dof ry rz
    limits (-20.0 10.0)
           (0.0 20.0)
  end
  begin
     id 18 
     name lhumerus
     direction 1 -4.48975e-011 5.47647e-028   
     length 4.76405   
     axis -180 -30 -90   XYZ
    dof rx ry rz
    limits (-60.0 90.0)
           (-90.0 90.0)
           (-90.0 90.0)
  end
  begin
     id 19
     name lradius
     direction 1 -4.48949e-011 -8.32142e-027   
     length 3.13759   
     axis -180 -30 -90   XYZ
    dof rx
    limits (-10.0 170.0)
  end
  begin
     id 20
     name lwrist
     direction 1 -4.48978e-011 -1.32705e-026   
     length 1.56879   
     axis 9.60836e-015 90 90   XYZ
    dof ry
    limits (-180.0 0.0)
 end
  begin
     id 21 
     name lhand
     direction 1 -4.48975e-011 -2.65409e-026   
     length 0.732262   
     axis 1.69354e-014 90 90   XYZ
    dof rx rz
    limits (-90.0 90.0)
           (-45.0 45.0)
  end
  begin
     id 22 
     name lfingers
     direction 1 -4.48923e-011 -5.30819e-026   
     length 0.590368   
     axis 3.38708e-014 90 90   XYZ
    dof rx
    limits (0.0 90.0)
  end
  begin
     id 23
     name lthumb
     direction 0.707107 -6.34914e-011 0.707107   
     length 0.847654   
     axis -90 45 2.85299e-015   XYZ
    dof rx rz
    limits (-45.0 45.0)
           (-45.0 45.0)
  end
  begin
     id 24 
     name rclavicle
     direction -0.963658 0.245183 -0.106063   
     length 3.43472  
     axis 0 0 0   XYZ 
    dof ry rz
    limits (-10.0 20.0)
           (-20.0 0.0)
  end
  begin
     id 25 
     name rhumerus
     direction -1 -4.48963e-011 -1.64784e-027  
     length 5.10161   
     axis -180 30 90   XYZ
    dof rx ry rz
    limits (-90.0 60.0)
           (-90.0 90.0)
           (-90.0 90.0)
  end
  begin
     id 26 
     name rradius
     direction -1 -4.48969e-011 -2.87943e-027   
     length 3.23267   
     axis -180 30 90   XYZ
    dof rx
    limits (-10.0 170.0)
  end
  begin
     id 27 
     name rwrist
     direction -1 -4.48982e-011 -1.32705e-026   
     length 1.61633   
     axis 9.60836e-015 -90 -90   XYZ
    dof ry
    limits (-180.0 0.0)
  end
  begin
     id 28
     name rhand
     direction -1 -4.48963e-011 -2.65409e-026   
     length 0.702   
     axis 1.69354e-014 -90 -90   XYZ
    dof rx rz
    limits (-90.0 90.0)
           (-45.0 45.0)
  end
  begin
     id 29
     name rfingers
     direction -1 -4.48934e-011 -5.30819e-026   
     length 0.565971   
     axis 3.38708e-014 -90 -90   XYZ
    dof rx
    limits (0.0 90.0)
  end
  begin
     id 30
     name rthumb
     direction -0.707107 -6.34908e-011 0.707107   
     length 0.812624   
     axis -90 -45 -2.85299e-015   XYZ
    dof rx rz
    limits (-45.0 45.0)
           (-45.0 45.0)
  end
:hierarchy
  begin
    root lhipjoint rhipjoint lowerback
    lhipjoint lfemur
    lfemur ltibia
    ltibia lfoot
    lfoot ltoes
    rhipjoint rfemur
    rfemur rtibia
    rtibia rfoot
    rfoot rtoes
    lowerback upperback
    upperback thorax
    thorax lowerneck lclavicle rclavicle
    lowerneck upperneck
    upperneck head
    lclavicle lhumerus
    lhumerus lradius
    lradius lwrist
    lwrist lhand lthumb
    lhand lfingers
    rclavicle rhumerus
    rhumerus rradius
    rradius rwrist
    rwrist rhand rthumb
    rhand rfingers
  end

#!OML:ASF \\sashay\E\basketball\basketball\Project 1\Capture day 1\Session 1\Subject.ASF
:FULLY-SPECIFIED
:DEGREES
1
root -32.0848 12.5225 12.9726 -11.3686 55.5641 -2.52647
lowerback 35.6123 8.32485 10.3969
upperback 17.2516 15.211 6.42796
thorax 2.21237 8.60308 -2.71494
lowerneck -5.13352 -9.57774 -3.79244
upperneck -18.311 -10.6391 14.6299
head -3.52362 -5.57454 5.19998
rclavicle -5.40694e-014 9.54166e-015
rhumerus 44.2317 -53.2425 -101.497
rradius 17.7565
rwrist 56.9966
rhand -7.99675 27.6894
rfingers 7.12502
rthumb 17.912 -1.50573
lclavicle -5.40694e-014 9.54166e-015
lhumerus -74.1611 -20.5905 121.102
lradius 46.1544
lwrist 22.2531
lhand -2.79655 29.3917
lfingers 7.12502
lthumb 22.9092 58.0507
rfemur -6.38284 10.1323 -13.1054
rtibia 68.4852
rfoot -29.0173 16.9051
rtoes -44.4712
lfemur -55.6596 14.322 -9.74937
ltibia 48.4541
lfoot 19.16 -10.651
ltoes -31.0448
2
root -31.4944 12.535 12.8597 -10.6517 54.6533 -2.21205
lowerback 34.5966 8.5341 9.60096
upperback 17.1692 15.0742 6.56654
thorax 2.22839 8.45166 -2.09043
lowerneck -4.48344 -9.56006 -4.87732
upperneck -17.6715 -10.6018 15.6839
head -3.29236 -5.56244 5.69106
rclavicle 1.46306e-013 -6.36111e-015
rhumerus 30.6743 -42.8033 -84.9315
rradius 20.7086
rwrist 35.5791
rhand -3.24181 26.1074
rfingers 7.12502
rthumb 22.4819 -2.60398
lclavicle 1.46306e-013 -6.36111e-015
lhumerus -72.1469 -18.5908 121.422
lradius 46.7456
lwrist 22.1436
lhand -3.918 29.8526
lfingers 7.12502
lthumb 21.8327 58.641
rfemur -4.35937 11.5406 -14.0962
rtibia 64.5615
rfoot -27.9158 14.6276
rtoes -47.3044
lfemur -54.4513 12.7898 -7.27865
ltibia 46.1646
lfoot 21.0878 -10.4939
ltoes -34.3806
3
root -30.8952 12.5176 12.746 -10.0571 53.6958 -1.83174
lowerback 33.9302 8.64982 9.03999
upperback 16.9906 14.9392 6.45808
thorax 2.15031 8.32412 -1.86322
lowerneck -4.07067 -9.65272 -4.95642
upperneck -17.2262 -10.7246 16.3856
head -3.15647 -5.66611 5.91302
rclavicle 3.18055e-014 -2.54444e-014
rhumerus 23.0118 -32.3301 -74.5813
rradius 24.1045
rwrist 19.8047
rhand 2.05407 23.89
rfingers 7.12502
rthumb 27.5563 -4.11292
lclavicle 3.18055e-014 -2.54444e-014
lhumerus -70.226 -17.3266 121.897
lradius 46.7017
lwrist 22.3979
lhand -5.87632 30.137
lfingers 7.12502
lthumb 19.9512 59.1328
rfemur -2.17943 13.2003 -15.1072
rtibia 60.7459
rfoot -25.4699 13.8865
rtoes -47.6961
lfemur -53.1019 11.38 -4.94832
ltibia 45.487
lfoot 22.2498 -9.02672
ltoes -35.0733
4
root -30.2847 12.4864 12.631 -9.8296 52.4446 -2.09809
lowerback 33.1779 8.68532 8.90032
upperback 16.6641 14.814 6.24683
thorax 2.07798 8.22247 -1.92988
lowerneck -3.96983 -9.66886 -4.94481
upperneck -16.5747 -10.7683 16.9789
head -2.9303 -5.70765 6.06369
rclavicle 9.54166e-014 -4.13472e-014
rhumerus 17.6947 -21.9119 -67.0993
rradius 27.6169
rwrist 12.5437
rhand 2.31864 22.7376
rfingers 7.12502
rthumb 27.8093 -5.22473
lclavicle 9.54166e-014 -4.13472e-014
lhumerus -68.1629 -16.5393 122.602
lradius 45.5809
lwrist 22.6692
lhand -8.19578 29.7048
lfingers 7.12502
lthumb 17.7205 58.9173
rfemur -0.479533 14.5089 -15.6645
rtibia 57.1372
rfoot -22.539 12.3707
rtoes -48.7463
lfemur -51.4632 9.48969 -2.02246
ltibia 45.1006
lfoot 24.0384 -6.3929
ltoes -33.9692
5
root -29.6793 12.4572 12.5063 -9.8311 51.0481 -2.76306
lowerback 31.5338 8.28244 8.92167
upperback 16.7155 14.0716 6.15741
thorax 2.76344 7.88081 -1.84169
lowerneck -3.28903 -9.39836 -5.63601
upperneck -16.704 -10.3189 17.831
head -3.02245 -5.51942 6.48875
rclavicle 6.04305e-014 -6.67916e-014
rhumerus 14.9459 -11.8331 -61.7892
rradius 31.2686
rwrist 10.0253
rhand 2.70878 23.1585
rfingers 7.12502
rthumb 28.1822 -4.74291
lclavicle 6.04305e-014 -6.67916e-014
lhumerus -65.5447 -15.3655 123.107
lradius 44.7889
lwrist 22.6884
lhand -9.8418 29.3486
lfingers 7.12502
lthumb 16.136 58.6968
rfemur 0.741706 14.9395 -16.056
rtibia 53.946
rfoot -19.0902 10.0378
rtoes -50.0581
lfemur -50.125 8.93821 0.0252331
ltibia 46.2939
lfoot 18.403 -8.92116
ltoes -51.647
6
root -29.0795 12.376 12.38 -9.54439 49.5122 -3.07429
lowerback 31.0273 7.93598 8.56994
upperback 16.1797 13.438 5.8819
thorax 2.27231 7.48083 -1.82609
lowerneck -3.1507 -9.16193 -5.74951
upperneck -16.5768 -9.97642 18.2119
head -3.01285 -5.36527 6.63594
rclavicle 7.95139e-015 -6.67916e-014
rhumerus 12.9142 -2.7686 -57.4331
rradius 35.0238
rwrist 9.29053
rhand 2.83792 24.1198
rfingers 7.12502
rthumb 28.3057 -3.76128
lclavicle 7.95139e-015 -6.67916e-014
lhumerus -63.6957 -14.3845 123.917
lradius 44.1918
lwrist 22.2352
lhand -10.8104 29.2399
lfingers 7.12502
lthumb 15.2032 58.6613
rfemur 1.41487 14.4219 -17.0576
rtibia 51.3744
rfoot -15.058 7.27476
rtoes -50.7352
lfemur -49.4993 7.48273 1.50165
ltibia 49.5484
lfoot 6.86821 -12.7702
ltoes -51.3336
7
root -28.4999 12.2797 12.2396 -9.24203 47.8241 -3.41602
lowerback 30.2413 7.2679 8.37502
upperback 15.8398 12.4125 5.54719
thorax 2.1636 6.92773 -1.77901
lowerneck -2.19959 -8.6848 -6.70084
upperneck -17.2264 -9.16467 19.2533
head -3.33402 -5.02064 7.22115
rclavicle -4.45278e-014 -5.40694e-014
rhumerus 12.7109 5.18007 -53.8759
rradius 38.4315
rwrist 6.83037
rhand 3.32787 24.7702
rfingers 7.12502
rthumb 28.7738 -3.03224
lclavicle -4.45278e-014 -5.40694e-014
lhumerus -61.3209 -13.5966 124.84
lradius 43.4803
lwrist 21.2456
lhand -11.0508 29.3811
lfingers 7.12502
lthumb 14.9716 58.8199
rfemur 1.33992 13.1236 -18.0837
rtibia 49.5044
rfoot -10.5736 4.21777
rtoes -50.7858
lfemur -51.3535 8.66221 0.379112
ltibia 54.9669
lfoot 7.16798 -7.56776
ltoes -42.6203
8
root -27.9728 12.239 12.0652 -9.25989 46.4601 -3.90341
lowerback 30.8447 6.53617 9.54118
upperback 15.4783 11.7783 4.25406
thorax 2.00167 6.71825 -3.71864
lowerneck -3.25392 -8.98581 -4.90396
upperneck -18.3289 -9.12515 20.5315
head -3.50691 -5.14012 7.33696
rclavicle 2.06736e-014 -4.13472e-014
rhumerus 12.5529 8.68019 -52.3772
rradius 41.7308
rwrist 1.54779
rhand 3.34885 25.0256
rfingers 7.12502
rthumb 28.7939 -2.77342
lclavicle 2.06736e-014 -4.13472e-014
lhumerus -59.805 -16.7678 125.003
lradius 43.5894
lwrist 20.6837
lhand -9.78963 30.0236
lfingers 7.12502
lthumb 16.1862 59.3678
rfemur 1.1695 11.0944 -18.5494
rtibia 48.1688
rfoot -6.32598 1.04305
rtoes -51.1418
lfemur -55.227 10.1621 -1.20124
ltibia 61.7141
lfoot 9.96442 -5.54257
ltoes -18.5709
9
root -27.4883 12.2003 11.9294 -7.67422 44.9056 -2.27062
lowerback 30.6845 6.22934 7.11855
upperback 15.5919 10.6881 3.84369
thorax 1.65791 6.01409 -2.63202
lowerneck -2.66963 -8.59485 -5.90606
upperneck -20.1695 -8.07895 22.2179
head -4.12167 -4.74387 8.22027
rclavicle -9.54166e-015 -1.74931e-014
rhumerus 13.996 12.8566 -49.7449
rradius 46.222
rwrist -9.4728
rhand 10.0466 22.6113
rfingers 7.12502
rthumb 35.1705 -3.9048
lclavicle -9.54166e-015 -1.74931e-014
lhumerus -56.4408 -17.0407 124.953
lradius 43.4514
lwrist 20.0376
lhand -7.37433 30.1154
lfingers 7.12502
lthumb 18.5108 59.2546
rfemur -0.0341533 8.93253 -20.3877
rtibia 47.7018
rfoot -3.27658 -2.0371
rtoes -52.3752
lfemur -58.1535 12.949 -5.62122
ltibia 68.4318
lfoot 3.27306 -7.86928
ltoes -53.2016
10
root -27.0005 12.1995 11.7924 -7.07712 43.1338 -1.72869
lowerback 31.2547 6.03658 5.48376
upperback 15.2603 10.004 3.61158
thorax 0.70342 5.51451 -1.96641
lowerneck -2.50312 -8.57358 -5.89459
upperneck -21.2246 -7.72972 23.1934
head -4.45596 -4.68536 8.63335
rclavicle -3.65764e-014 -4.13472e-014
rhumerus 13.8336 15.0624 -48.3035
rradius 51.6083
rwrist -20.1388
rhand 16.7908 18.5463
rfingers 7.12502
rthumb 41.5346 -6.1978
lclavicle -3.65764e-014 -4.13472e-014
lhumerus -53.5757 -17.0399 123.802
lradius 42.551
lwrist 18.5631
lhand -2.77494 27.4716
lfingers 7.12502
lthumb 22.9299 56.1281
rfemur -1.45096 6.74959 -20.8157
rtibia 47.6501
rfoot -1.12248 -5.43554
rtoes -50.3435
lfemur -59.3645 14.4169 -7.28572
ltibia 72.985
lfoot 1.13149 -5.31093
ltoes -39.0264
11
root -26.5362 12.1708 11.6785 -7.19382 41.2817 -1.45471
lowerback 32.0157 5.40647 5.80596
upperback 15.4391 9.26276 2.15402
thorax 0.877947 5.24809 -3.57299
lowerneck -2.81692 -9.05125 -4.45891
upperneck -22.6323 -7.75441 25.0573
head -4.7929 -4.96296 9.10976
rclavicle -4.45278e-014 1.30403e-013
rhumerus 13.5451 13.4176 -49.929
rradius 56.1388
rwrist -28.0067
rhand 24.1302 12.5787
rfingers 7.12502
rthumb 48.3614 -9.46368
lclavicle -4.45278e-014 1.30403e-013
lhumerus -53.6771 -23.3418 125.489
lradius 41.3583
lwrist 9.12723
lhand -13.6086 24.179
lfingers 7.12502
lthumb 12.5065 53.7847
rfemur -2.9839 4.84936 -20.611
rtibia 48.412
rfoot -0.233688 -8.83817
rtoes -50.0837
lfemur -58.6752 15.419 -8.42841
ltibia 75.7324
lfoot -1.88927 -3.30439
ltoes -11.453
